<svg width="512" height="512" viewBox="0 0 512 512" fill="none" xmlns="http://www.w3.org/2000/svg">
<path d="M445.226 434.906H67.5286" stroke="black" stroke-width="27" stroke-linecap="round" stroke-linejoin="round"/>
<path d="M313.031 246.057H388.571C399.001 246.057 407.456 254.512 407.456 264.942V416.021C407.456 426.451 399.001 434.906 388.571 434.906H313.031C302.601 434.906 294.146 426.451 294.146 416.021V264.942C294.146 254.512 302.601 246.057 313.031 246.057Z" stroke="black" stroke-width="27" stroke-linejoin="round"/>
<path d="M124.183 76.094H275.262C285.692 76.094 294.147 84.549 294.147 94.9788V416.021C294.147 426.451 285.692 434.906 275.262 434.906H124.183C113.753 434.906 105.298 426.451 105.298 416.021V94.9788C105.298 84.549 113.753 76.094 124.183 76.094Z" stroke="black" stroke-width="27" stroke-linejoin="round"/>
<path d="M218.609 340.558H180.839M369.688 340.558H331.918M218.609 255.576H180.839M218.609 170.594H180.839" stroke="black" stroke-width="27" stroke-linecap="round" stroke-linejoin="round"/>
</svg>
